<svg width="75" height="75" viewBox="0 0 75 75" fill="none" xmlns="http://www.w3.org/2000/svg">
<path d="M36.6031 49.8609L33.9172 56.0109C32.8844 58.375 29.614 58.375 28.5812 56.0109L25.8953 49.8609C23.5062 44.3875 19.2047 40.0312 13.839 37.65L6.44841 34.3687C4.09841 33.325 4.09841 29.9078 6.44841 28.864L13.6094 25.6859C19.1125 23.2437 23.4906 18.725 25.839 13.0656L28.5594 6.51089C29.5687 4.07808 32.9297 4.07808 33.939 6.51089L36.6594 13.0656C39.0078 18.725 43.3859 23.2437 48.889 25.6859L56.05 28.864C58.4 29.9078 58.4 33.325 56.05 34.3687L48.6594 37.65C43.2937 40.0312 38.9922 44.389 36.6031 49.8609Z" fill="#009986"/>
<path d="M60.0359 67.575L59.2656 69.3422C58.7016 70.6359 56.9109 70.6359 56.3469 69.3422L55.5766 67.575C54.2031 64.425 51.7266 61.9172 48.6391 60.5437L46.2641 59.489C44.9797 58.9187 44.9797 57.0515 46.2641 56.4812L48.5063 55.4843C51.6734 54.0765 54.1938 51.4765 55.5438 48.2187L56.3359 46.3094C56.8875 44.9781 58.7281 44.9781 59.2797 46.3094L60.0719 48.2187C61.4219 51.4765 63.9422 54.0765 67.1094 55.4843L69.3516 56.4812C70.6359 57.0515 70.6359 58.9187 69.3516 59.489L66.9766 60.5437C63.8859 61.9172 61.4109 64.425 60.0359 67.575Z" fill="#009986"/>
</svg>
