<svg width="100" height="100" viewBox="0 0 100 100" fill="none" xmlns="http://www.w3.org/2000/svg">
<path d="M84.0176 60.8437L81.5494 53.3707C81.467 53.1227 81.2908 52.9175 81.0573 52.8C80.8246 52.684 80.5545 52.6626 80.3066 52.745L76.8771 53.878C77.3883 52.9671 77.6927 51.947 77.7484 50.8735C77.8437 49.0364 77.2181 47.2718 75.9867 45.9046C74.7554 44.5381 73.0647 43.7325 71.2276 43.6372C67.4479 43.4632 64.1887 46.3655 63.991 50.1581C63.8957 51.9952 64.5213 53.7606 65.7527 55.127C66.4034 55.8488 67.1839 56.4088 68.0445 56.7956L29.0874 69.6618C29.7947 68.644 30.241 67.4272 30.3096 66.1013C30.5065 62.3095 27.5813 59.0632 23.7887 58.8647C19.9977 58.6839 16.7491 61.5938 16.5522 65.3864C16.4569 67.2236 17.0825 68.9882 18.3138 70.3554C19.1142 71.2434 20.1106 71.8896 21.2123 72.2627L15.2828 74.2211C15.0348 74.3027 14.8296 74.4797 14.7121 74.7132C14.5946 74.9459 14.5748 75.216 14.6564 75.4639L17.1254 82.937C17.2619 83.3513 17.6465 83.6122 18.06 83.6122C18.1622 83.6122 18.266 83.5969 18.3682 83.5626L48.2022 73.7093L38.3953 87.8137C38.1855 88.1151 38.1611 88.5073 38.3312 88.8323C38.5014 89.1573 38.8371 89.3602 39.2033 89.3602H39.2048L60.7986 89.3266C61.1648 89.3259 61.4997 89.1222 61.6698 88.7979C61.8392 88.4729 61.8148 88.0823 61.6057 87.7809L51.1534 72.7343L83.3917 62.0866C83.9074 61.9165 84.1874 61.3603 84.0173 60.8438L84.0176 60.8437ZM65.9557 50.2595C66.0922 47.6373 68.2697 45.5964 70.8668 45.5964C70.9522 45.5964 71.0385 45.5987 71.1254 45.6033C72.4385 45.6712 73.6446 46.2465 74.525 47.2223C75.4047 48.1988 75.8518 49.4592 75.7831 50.7723C75.7152 52.0838 75.14 53.2914 74.1634 54.1711C73.1868 55.0523 71.9294 55.5055 70.6142 55.4292C67.905 55.288 65.8154 52.9695 65.9557 50.2595ZM18.5182 65.4886C18.6547 62.8656 20.8322 60.824 23.4293 60.824C23.5147 60.824 23.601 60.8263 23.6872 60.8308C26.3963 60.972 28.486 63.2906 28.3458 65.9998C28.2046 68.7074 25.9151 70.8086 23.176 70.6576C21.8638 70.5897 20.6569 70.0144 19.7764 69.0386C18.8975 68.0621 18.4503 66.8009 18.5182 65.4886ZM18.6868 81.3861L16.8359 75.7808L79.9902 54.9214L81.8411 60.5267L18.6868 81.3861Z" fill="#009986"/>
<path d="M42.0176 22.4257H42.1053C42.7355 22.4257 43.2688 21.9573 43.3481 21.3324C43.7578 18.1014 46.0421 16.1543 49.8698 16.1543C54.0659 16.1543 56.6378 18.1403 56.6378 21.9297C56.6378 28.1117 48.6964 26.2617 48.6964 32.984V35.4209C48.6964 36.119 49.2617 36.6844 49.9598 36.6844C50.6571 36.6844 51.2233 36.119 51.2233 35.4209V33.0307C51.2233 28.6537 59.2547 29.8721 59.2547 21.975C59.2547 16.6063 55.2844 13.6735 49.7789 13.6735C44.8197 13.6735 41.35 16.4283 40.7549 20.9901C40.6557 21.7469 41.2531 22.4257 42.0176 22.4257Z" fill="#009986"/>
<path d="M50.0059 40.5645C49.1338 40.5645 48.4266 41.2717 48.4266 42.1437V42.516C48.4266 43.3881 49.1338 44.0953 50.0059 44.0953C50.8779 44.0953 51.5851 43.3881 51.5851 42.516V42.1437C51.5851 41.2717 50.8779 40.5645 50.0059 40.5645Z" fill="#009986"/>
</svg>
