<svg width="22" height="22" viewBox="0 0 22 22" fill="none" xmlns="http://www.w3.org/2000/svg">
<path d="M14.6668 18.3333V3.66666C14.6668 3.18043 14.4737 2.71412 14.1299 2.3703C13.786 2.02648 13.3197 1.83333 12.8335 1.83333H9.16683C8.6806 1.83333 8.21428 2.02648 7.87047 2.3703C7.52665 2.71412 7.3335 3.18043 7.3335 3.66666V18.3333" stroke="#808080" stroke-width="2" stroke-linecap="round" stroke-linejoin="round"/>
<path d="M18.3335 5.5H3.66683C2.65431 5.5 1.8335 6.32081 1.8335 7.33333V16.5C1.8335 17.5125 2.65431 18.3333 3.66683 18.3333H18.3335C19.346 18.3333 20.1668 17.5125 20.1668 16.5V7.33333C20.1668 6.32081 19.346 5.5 18.3335 5.5Z" stroke="#808080" stroke-width="2" stroke-linecap="round" stroke-linejoin="round"/>
</svg>
