<svg width="31" height="31" viewBox="0 0 31 31" fill="none" xmlns="http://www.w3.org/2000/svg">
<circle cx="15.2245" cy="15.2245" r="15.2245" fill="#F9FAFB"/>
<path d="M18.8782 5.68376H12.7884C12.2279 5.68376 11.7734 6.13818 11.7734 6.69873V8.72865C11.7734 9.2892 12.2279 9.74362 12.7884 9.74362H18.8782C19.4387 9.74362 19.8931 9.2892 19.8931 8.72865V6.69873C19.8931 6.13818 19.4387 5.68376 18.8782 5.68376Z" stroke="#C0C0C0" stroke-width="2" stroke-linecap="round" stroke-linejoin="round"/>
<path d="M19.8934 7.7137H21.9234C22.4617 7.7137 22.978 7.92757 23.3587 8.30825C23.7394 8.68894 23.9533 9.20526 23.9533 9.74363V23.9531C23.9533 24.4915 23.7394 25.0078 23.3587 25.3885C22.978 25.7692 22.4617 25.983 21.9234 25.983H9.74379C9.20542 25.983 8.6891 25.7692 8.30842 25.3885C7.92773 25.0078 7.71387 24.4915 7.71387 23.9531V9.74363C7.71387 9.20526 7.92773 8.68894 8.30842 8.30825C8.6891 7.92757 9.20542 7.7137 9.74379 7.7137H11.7737" stroke="#C0C0C0" stroke-width="2" stroke-linecap="round" stroke-linejoin="round"/>
<path d="M12.7886 17.8633L14.8185 19.8933L18.8784 15.8334" stroke="#C0C0C0" stroke-width="2" stroke-linecap="round" stroke-linejoin="round"/>
</svg>
