<svg width="31" height="31" viewBox="0 0 31 31" fill="none" xmlns="http://www.w3.org/2000/svg">
<circle cx="15.2245" cy="15.2245" r="15.2245" fill="#F9FAFB"/>
<path d="M19.081 23.9024V21.9739C19.081 20.951 18.6747 19.97 17.9514 19.2467C17.2281 18.5234 16.2471 18.1171 15.2242 18.1171H9.43889C8.41599 18.1171 7.43498 18.5234 6.71168 19.2467C5.98838 19.97 5.58203 20.951 5.58203 21.9739V23.9024" stroke="#C0C0C0" stroke-width="2" stroke-linecap="round" stroke-linejoin="round"/>
<path d="M19.0811 6.66991C19.9081 6.88432 20.6406 7.36729 21.1635 8.04301C21.6863 8.71873 21.97 9.54895 21.97 10.4033C21.97 11.2577 21.6863 12.088 21.1635 12.7637C20.6406 13.4394 19.9081 13.9224 19.0811 14.1368" stroke="#C0C0C0" stroke-width="2" stroke-linecap="round" stroke-linejoin="round"/>
<path d="M24.8668 23.9024V21.9739C24.8661 21.1194 24.5817 20.2892 24.0581 19.6138C23.5346 18.9384 22.8015 18.4561 21.9741 18.2424" stroke="#C0C0C0" stroke-width="2" stroke-linecap="round" stroke-linejoin="round"/>
<path d="M12.332 14.2602C14.462 14.2602 16.1888 12.5334 16.1888 10.4033C16.1888 8.27325 14.462 6.54648 12.332 6.54648C10.2019 6.54648 8.4751 8.27325 8.4751 10.4033C8.4751 12.5334 10.2019 14.2602 12.332 14.2602Z" stroke="#C0C0C0" stroke-width="2" stroke-linecap="round" stroke-linejoin="round"/>
</svg>
