<svg width="195" height="251" viewBox="0 0 195 251" fill="none" xmlns="http://www.w3.org/2000/svg">
<g clip-path="url(#clip0_15_2)">
<path d="M176.521 72.0857C181.362 72.5755 185.722 74.8207 188.987 78.192C192.697 82.0213 195 87.3086 195 93.1294V113.153C195 118.973 192.697 124.261 188.987 128.09C185.727 131.456 181.376 133.7 176.543 134.195C175.233 151.469 161.146 165.17 144.09 165.17H118.12V173.917C121.898 175.089 124.673 178.713 124.696 182.971H136.562C157.114 182.971 173.911 200.312 173.911 221.528V245.896C173.911 248.715 171.698 251 168.968 251H27.0917C24.3617 251 22.1484 248.715 22.1484 245.896V221.528C22.1484 200.312 38.9459 182.971 59.4973 182.971H70.914C70.9368 178.725 73.7214 175.097 77.4904 173.92V165.17H51.5203C34.4808 165.17 20.4062 151.497 19.072 134.248C13.9935 133.888 9.41077 131.599 6.01321 128.09C2.30299 124.261 0 118.973 0 113.153V93.1294C0 87.3086 2.30299 82.0213 6.01321 78.192C9.41551 74.6787 14.0063 72.3879 19.0943 72.0333C20.5476 54.905 34.5658 41.3675 51.5203 41.3675H92.9476V30.1275C90.8141 29.3576 88.8764 28.1006 87.2789 26.4501C84.5631 23.646 82.8826 19.7717 82.8826 15.4943C82.8826 11.2164 84.5631 7.34258 87.2789 4.53848C89.9951 1.73487 93.748 0 97.891 0C102.034 0 105.787 1.73487 108.503 4.53897C111.219 7.34209 112.9 11.2159 112.9 15.4943C112.9 19.7717 111.219 23.646 108.503 26.4496C106.906 28.1004 104.968 29.3576 102.834 30.1275V41.3675H144.09C161.062 41.3675 175.091 54.9324 176.521 72.0857Z" fill="#213853"/>
<path fill-rule="evenodd" clip-rule="evenodd" d="M113.176 165.17V173.518H82.4333V165.17H113.176Z" fill="#495F7C"/>
<path fill-rule="evenodd" clip-rule="evenodd" d="M18.9672 129.118C11.1245 128.325 4.9433 121.449 4.9433 113.153V93.1294C4.9433 84.8337 11.1245 77.9569 18.9672 77.1644V129.118Z" fill="#009986"/>
<path fill-rule="evenodd" clip-rule="evenodd" d="M18.9672 122.581C11.1245 121.788 4.9433 114.911 4.9433 106.615V93.1294C4.9433 84.8337 11.1245 77.9574 18.9672 77.1644V122.581Z" fill="#009986"/>
<path fill-rule="evenodd" clip-rule="evenodd" d="M176.643 129.043C184.193 127.965 190.057 121.232 190.057 113.153V93.1294C190.057 85.0502 184.193 78.3174 176.643 77.2389V129.043Z" fill="#009986"/>
<path fill-rule="evenodd" clip-rule="evenodd" d="M176.643 122.506C184.193 121.428 190.057 114.695 190.057 106.615V93.1294C190.057 85.0502 184.193 78.3174 176.643 77.2393V122.506Z" fill="#009986"/>
<path fill-rule="evenodd" clip-rule="evenodd" d="M51.5203 46.5001H144.09C159.26 46.5001 171.671 59.3127 171.671 74.9731V131.564C171.671 147.225 159.26 160.037 144.09 160.037H51.5203C36.3502 160.037 23.939 147.225 23.939 131.564V74.9731C23.939 59.3127 36.3502 46.5001 51.5203 46.5001Z" fill="#DFDCDF"/>
<path fill-rule="evenodd" clip-rule="evenodd" d="M49.5428 46.5001H136.18C151.349 46.5001 163.762 59.3171 163.762 74.9731V131.564C163.762 139.422 160.633 146.568 155.6 151.734C152.373 153.062 148.931 153.743 145.457 153.741H58.8198C43.6539 153.741 31.2384 140.927 31.2384 125.268V68.6762C31.2384 56.2485 36.8649 46.5001 49.5428 46.5001Z" fill="#F9F2F5"/>
<path fill-rule="evenodd" clip-rule="evenodd" d="M97.8914 5.10321C103.45 5.10321 107.956 9.75532 107.956 15.4943C107.956 21.2333 103.45 25.8849 97.8914 25.8849C92.3323 25.8849 87.8259 21.2333 87.8259 15.4943C87.8259 9.75532 92.3323 5.10321 97.8914 5.10321Z" fill="#009986"/>
<path fill-rule="evenodd" clip-rule="evenodd" d="M80.1213 178.621H115.488C117.817 178.621 119.725 180.573 119.753 182.971H75.8574C75.8849 180.573 77.7931 178.621 80.1213 178.621Z" fill="#FAF4F4"/>
<path fill-rule="evenodd" clip-rule="evenodd" d="M62.7511 188.074H133.143C133.25 188.278 133.392 188.466 133.57 188.628C135.506 190.393 137.231 192.488 138.748 194.654C140.276 196.838 141.606 199.122 142.734 201.229C144.695 204.892 145.763 207.884 146.336 210.928C146.915 214.006 147.006 217.246 147.006 221.324V245.813C147.006 245.841 147.006 245.869 147.008 245.897H48.8862C48.8871 245.869 48.8881 245.841 48.8881 245.813V221.324C48.8881 217.246 48.9792 214.006 49.558 210.928C50.1307 207.884 51.1982 204.892 53.1596 201.229C54.2878 199.122 55.6182 196.838 57.1469 194.654C58.6637 192.488 60.3879 190.393 62.3241 188.628C62.4969 188.471 62.6414 188.283 62.7511 188.074ZM138.705 188.149C155.539 189.299 168.968 203.872 168.968 221.528V231.399C168.933 231.397 168.898 231.396 168.864 231.396H150.961V221.324C150.961 217.036 150.859 213.598 150.213 210.163C149.56 206.692 148.368 203.327 146.195 199.268C145.015 197.064 143.605 194.65 141.945 192.277C140.952 190.859 139.873 189.464 138.705 188.149ZM168.968 235.477V245.897H150.959C150.96 245.869 150.961 245.841 150.961 245.813V235.479H168.864C168.898 235.479 168.933 235.478 168.968 235.477ZM44.9349 245.897H27.0917V235.477C27.1212 235.479 27.1506 235.479 27.1805 235.479H44.9331V245.813C44.9331 245.841 44.934 245.869 44.9349 245.897ZM44.9331 231.396H27.1805C27.1506 231.396 27.1212 231.397 27.0917 231.398V221.528C27.0917 203.933 40.4267 189.399 57.1787 188.161C56.0144 189.472 54.9393 190.863 53.9491 192.277C52.289 194.649 50.8794 197.064 49.6994 199.268C47.5264 203.327 46.3336 206.692 45.6808 210.163C45.0346 213.598 44.9331 217.036 44.9331 221.324V231.396Z" fill="#F2EBEC"/>
<path d="M46.9096 231.396C47.4341 231.396 47.9371 231.611 48.3079 231.994C48.6788 232.377 48.8871 232.896 48.8871 233.438C48.8871 233.979 48.6788 234.498 48.3079 234.881C47.9371 235.264 47.4341 235.479 46.9096 235.479H27.1805C26.6635 235.468 26.1715 235.247 25.8099 234.866C25.4483 234.484 25.2458 233.972 25.2458 233.438C25.2458 232.904 25.4483 232.391 25.8099 232.01C26.1715 231.628 26.6635 231.408 27.1805 231.396H46.9096ZM76.8798 199.938H119.179C125.326 199.938 130.36 205.139 130.36 211.481V223.514C130.36 229.871 125.337 235.057 119.179 235.057H76.8798C70.7309 235.057 65.6994 229.856 65.6994 223.514V211.481C65.6994 205.122 70.7205 199.938 76.8798 199.938Z" fill="#233551"/>
<path fill-rule="evenodd" clip-rule="evenodd" d="M76.8799 205.042H119.179C122.61 205.042 125.416 207.94 125.416 211.481V223.514C125.416 227.055 122.609 229.953 119.179 229.953H76.8799C73.4505 229.953 70.6427 227.056 70.6427 223.514V211.481C70.6427 207.939 73.4491 205.042 76.8799 205.042Z" fill="#009986"/>
<path d="M65.2937 77.9687C70.7461 77.9687 75.6837 80.2511 79.2568 83.9403C82.8304 87.629 85.0413 92.7263 85.0413 98.3551C85.0413 109.613 76.199 118.742 65.2937 118.742C59.8408 118.742 54.9036 116.46 51.3301 112.77C47.7565 109.081 45.5455 103.984 45.5455 98.3551C45.5455 92.7263 47.7565 87.629 51.3301 83.9403C54.9036 80.2511 59.8408 77.9687 65.2937 77.9687Z" fill="#213853"/>
<path fill-rule="evenodd" clip-rule="evenodd" d="M65.2937 81.0309C74.5621 81.0309 82.0751 88.7869 82.0751 98.3551C82.0751 107.923 74.5621 115.68 65.2937 115.68C56.0253 115.68 48.5118 107.923 48.5118 98.3551C48.5118 88.7869 56.0253 81.0309 65.2937 81.0309Z" fill="#3A506D"/>
<path d="M65.2937 83.5024C69.2658 83.5024 72.8626 85.1653 75.4669 87.8528C78.0702 90.5403 79.681 94.2545 79.681 98.3551C79.681 102.456 78.0702 106.169 75.4669 108.858C72.8626 111.545 69.2658 113.208 65.2937 113.208C61.3206 113.208 57.7238 111.545 55.1204 108.857C52.5167 106.17 50.9059 102.456 50.9059 98.3551C50.9059 94.2545 52.5167 90.5408 55.12 87.8528C57.7242 85.1653 61.3211 83.5024 65.2937 83.5024Z" fill="#213853"/>
<path fill-rule="evenodd" clip-rule="evenodd" d="M65.2937 86.5641C71.602 86.5641 76.7152 91.8427 76.7152 98.3551C76.7152 104.867 71.602 110.146 65.2937 110.146C58.9858 110.146 53.8717 104.867 53.8717 98.3551C53.8717 91.8427 58.9858 86.5641 65.2937 86.5641Z" fill="#AFE3F1"/>
<path d="M130.685 77.9687C141.59 77.9687 150.433 87.097 150.433 98.3551C150.433 103.984 148.222 109.081 144.648 112.77C141.075 116.46 136.138 118.742 130.685 118.742C125.232 118.742 120.295 116.46 116.721 112.77C113.148 109.081 110.937 103.984 110.937 98.3551C110.937 92.7263 113.148 87.629 116.721 83.9403C120.295 80.2511 125.232 77.9687 130.685 77.9687Z" fill="#213853"/>
<path fill-rule="evenodd" clip-rule="evenodd" d="M130.685 81.0309C139.953 81.0309 147.467 88.7869 147.467 98.3551C147.467 107.923 139.953 115.68 130.685 115.68C121.416 115.68 113.903 107.923 113.903 98.3551C113.903 88.7869 121.416 81.0309 130.685 81.0309Z" fill="#374B66"/>
<path d="M130.685 83.5024C134.657 83.5024 138.254 85.1653 140.858 87.8528C143.462 90.5408 145.072 94.2545 145.072 98.3551C145.072 102.456 143.462 106.17 140.858 108.857C138.255 111.545 134.657 113.208 130.685 113.208C126.712 113.208 123.115 111.545 120.511 108.857C117.908 106.17 116.297 102.456 116.297 98.3551C116.297 94.2545 117.908 90.5408 120.511 87.8528C123.115 85.1653 126.713 83.5024 130.685 83.5024Z" fill="#213853"/>
<path fill-rule="evenodd" clip-rule="evenodd" d="M130.685 86.5641C136.993 86.5641 142.106 91.8427 142.106 98.3551C142.106 104.867 136.993 110.146 130.685 110.146C124.377 110.146 119.263 104.867 119.263 98.3551C119.263 91.8427 124.377 86.5641 130.685 86.5641Z" fill="#AFE3F1"/>
<path d="M112.797 129.848C113.19 129.843 113.579 129.918 113.943 130.07C114.308 130.222 114.639 130.446 114.919 130.731C115.198 131.016 115.42 131.355 115.571 131.729C115.723 132.103 115.801 132.505 115.801 132.91C115.801 133.316 115.723 133.717 115.571 134.091C115.42 134.465 115.198 134.804 114.919 135.089C114.639 135.374 114.308 135.599 113.943 135.75C113.579 135.902 113.19 135.977 112.797 135.972H82.8129C82.4202 135.977 82.0305 135.902 81.6663 135.75C81.302 135.599 80.9706 135.374 80.6912 135.089C80.4118 134.804 80.1899 134.465 80.0385 134.091C79.8871 133.717 79.8091 133.316 79.8091 132.91C79.8091 132.505 79.8871 132.103 80.0385 131.729C80.1899 131.355 80.4118 131.016 80.6912 130.731C80.9706 130.446 81.302 130.222 81.6663 130.07C82.0305 129.918 82.4202 129.843 82.8129 129.848H112.797ZM90.7941 54.4245C91.3971 54.4239 91.9943 54.5463 92.5513 54.7846C93.1084 55.0229 93.6144 55.3724 94.0403 55.8131C94.4673 56.2528 94.806 56.7752 95.0368 57.3504C95.2676 57.9256 95.3861 58.5422 95.3854 59.1648C95.386 59.7874 95.2675 60.404 95.0367 60.9791C94.8059 61.5543 94.4673 62.0768 94.0403 62.5165C93.6145 62.9573 93.1085 63.3068 92.5514 63.5451C91.9943 63.7834 91.3971 63.9057 90.7941 63.9051C90.1909 63.9058 89.5936 63.7835 89.0363 63.5452C88.4791 63.3069 87.9729 62.9573 87.547 62.5165C87.1201 62.0767 86.7816 61.5542 86.5508 60.9791C86.3199 60.4039 86.2014 59.7873 86.2019 59.1648C86.2013 58.5422 86.3198 57.9256 86.5506 57.3504C86.7814 56.7753 87.12 56.2528 87.547 55.8131C87.973 55.3724 88.4792 55.0229 89.0364 54.7846C89.5937 54.5463 90.191 54.4239 90.7941 54.4245Z" fill="#213853"/>
<path fill-rule="evenodd" clip-rule="evenodd" d="M90.7941 56.466C91.4874 56.466 92.1524 56.7503 92.6426 57.2565C93.1329 57.7626 93.4083 58.449 93.4083 59.1648C93.4083 59.8806 93.1329 60.567 92.6426 61.0731C92.1524 61.5793 91.4874 61.8636 90.7941 61.8636C90.1008 61.8636 89.4358 61.5793 88.9456 61.0731C88.4553 60.567 88.1799 59.8806 88.1799 59.1648C88.1799 58.449 88.4553 57.7626 88.9456 57.2565C89.4358 56.7503 90.1008 56.466 90.7941 56.466Z" fill="#3A506D"/>
<path d="M104.862 54.4245C105.464 54.4246 106.06 54.5472 106.616 54.7855C107.172 55.0238 107.677 55.373 108.102 55.8131H108.109C108.536 56.2528 108.874 56.7752 109.105 57.3504C109.336 57.9256 109.455 58.5422 109.454 59.1648C109.455 59.7874 109.336 60.4039 109.105 60.9791C108.874 61.5543 108.536 62.0768 108.109 62.5165L107.968 62.6482C107.1 63.4788 105.953 63.9291 104.77 63.9046C103.586 63.88 102.458 63.3824 101.623 62.5165H101.615C101.188 62.0768 100.85 61.5543 100.619 60.9792C100.388 60.404 100.269 59.7874 100.27 59.1648C100.269 58.5421 100.388 57.9255 100.619 57.3503C100.85 56.7751 101.188 56.2527 101.615 55.8131L101.756 55.6813C102.601 54.8731 103.71 54.4243 104.862 54.4245Z" fill="#213853"/>
<path fill-rule="evenodd" clip-rule="evenodd" d="M104.862 56.466C105.379 56.4661 105.884 56.6245 106.314 56.9211C106.744 57.2177 107.079 57.6392 107.277 58.1324C107.475 58.6255 107.526 59.1681 107.425 59.6916C107.325 60.2151 107.076 60.6959 106.71 61.0733C106.344 61.4507 105.878 61.7077 105.371 61.8118C104.864 61.9159 104.339 61.8624 103.861 61.6581C103.383 61.4538 102.975 61.1079 102.688 60.6641C102.401 60.2203 102.247 59.6985 102.247 59.1648C102.247 58.8103 102.315 58.4594 102.446 58.1319C102.578 57.8044 102.77 57.5069 103.013 57.2563C103.256 57.0057 103.544 56.8069 103.861 56.6713C104.179 56.5357 104.519 56.4659 104.862 56.466Z" fill="#3A506D"/>
<path fill-rule="evenodd" clip-rule="evenodd" d="M62.3407 88.2211C65.0043 88.2211 67.163 90.4497 67.163 93.199C67.163 95.9492 65.0043 98.1773 62.3407 98.1773C59.6771 98.1773 57.5184 95.9492 57.5184 93.199C57.5184 90.4497 59.6771 88.2211 62.3407 88.2211ZM130.834 88.2211C133.497 88.2211 135.655 90.4497 135.655 93.199C135.655 95.9492 133.497 98.1773 130.834 98.1773C128.17 98.1773 126.011 95.9492 126.011 93.199C126.011 90.4497 128.17 88.2211 130.834 88.2211Z" fill="white"/>
<path d="M81.7102 212.757C82.3133 212.757 82.9106 212.879 83.4678 213.117C84.0249 213.356 84.531 213.705 84.9569 214.146C85.3839 214.586 85.7225 215.108 85.9533 215.683C86.1842 216.258 86.3026 216.875 86.302 217.497C86.3026 218.12 86.1842 218.737 85.9533 219.312C85.7225 219.887 85.3839 220.41 84.9569 220.849C84.5309 221.29 84.0249 221.64 83.4677 221.878C82.9106 222.116 82.3133 222.239 81.7102 222.238C81.1071 222.239 80.5099 222.116 79.9527 221.878C79.3956 221.64 78.8895 221.29 78.4635 220.849C78.0366 220.41 77.6981 219.887 77.4673 219.312C77.2364 218.737 77.1179 218.12 77.1185 217.497C77.1179 216.875 77.2365 216.258 77.4673 215.683C77.6981 215.108 78.0367 214.586 78.4635 214.146C78.8895 213.705 79.3956 213.356 79.9527 213.117C80.5099 212.879 81.1071 212.757 81.7102 212.757Z" fill="#213853"/>
<path fill-rule="evenodd" clip-rule="evenodd" d="M81.7102 214.798C82.4035 214.798 83.0685 215.083 83.5588 215.589C84.0491 216.095 84.3246 216.781 84.3247 217.497C84.3247 218.213 84.0494 218.899 83.5591 219.405C83.0689 219.912 82.404 220.196 81.7107 220.196C81.3674 220.196 81.0274 220.126 80.7102 219.991C80.393 219.855 80.1048 219.656 79.8621 219.406C79.3717 218.9 79.0963 218.213 79.0962 217.497C79.0961 216.782 79.3715 216.095 79.8617 215.589C80.3519 215.083 81.0169 214.799 81.7102 214.798Z" fill="#3A506D"/>
<path d="M114.349 212.757C114.951 212.757 115.547 212.88 116.102 213.118C116.658 213.356 117.163 213.706 117.588 214.146H117.595C118.022 214.586 118.361 215.108 118.592 215.683C118.823 216.258 118.941 216.875 118.941 217.497C118.942 218.12 118.823 218.737 118.592 219.312C118.361 219.887 118.022 220.41 117.595 220.849L117.455 220.981C116.61 221.789 115.501 222.238 114.349 222.238C113.747 222.238 113.151 222.115 112.595 221.877C112.039 221.639 111.534 221.29 111.109 220.849H111.102C110.675 220.41 110.336 219.887 110.106 219.312C109.875 218.737 109.756 218.12 109.757 217.497C109.756 216.875 109.875 216.258 110.106 215.683C110.336 215.108 110.675 214.586 111.102 214.146L111.242 214.014C112.087 213.206 113.197 212.757 114.349 212.757Z" fill="#213853"/>
<path fill-rule="evenodd" clip-rule="evenodd" d="M114.349 214.798C115.042 214.798 115.707 215.083 116.198 215.589C116.688 216.095 116.963 216.782 116.963 217.498C116.963 218.214 116.688 218.9 116.198 219.406C115.707 219.913 115.042 220.197 114.349 220.197C113.655 220.197 112.99 219.913 112.5 219.406C112.009 218.9 111.734 218.214 111.734 217.498C111.734 216.782 112.009 216.095 112.5 215.589C112.99 215.083 113.655 214.798 114.349 214.798Z" fill="#3A506D"/>
</g>
<defs>
<clipPath id="clip0_15_2">
<rect width="195" height="251" fill="white"/>
</clipPath>
</defs>
</svg>