<svg width="24" height="24" viewBox="0 0 24 24" fill="none" xmlns="http://www.w3.org/2000/svg">
<path d="M12 13V21" stroke="#009986" stroke-width="2" stroke-linecap="round" stroke-linejoin="round"/>
<path d="M4.00009 14.899C3.25714 14.1399 2.69666 13.2217 2.36113 12.2139C2.0256 11.2062 1.9238 10.1352 2.06346 9.08231C2.20311 8.02936 2.58055 7.02201 3.16719 6.13654C3.75383 5.25107 4.53428 4.51072 5.44943 3.97156C6.36458 3.43239 7.39042 3.10856 8.44926 3.02458C9.5081 2.94061 10.5722 3.09869 11.5609 3.48686C12.5496 3.87504 13.4369 4.48312 14.1558 5.26504C14.8747 6.04697 15.4062 6.98224 15.7101 8H17.5001C18.4656 7.99989 19.4056 8.31033 20.1811 8.88545C20.9566 9.46056 21.5266 10.2699 21.8069 11.1938C22.0871 12.1178 22.0628 13.1073 21.7374 14.0164C21.4121 14.9254 20.803 15.7057 20.0001 16.242" stroke="#009986" stroke-width="2" stroke-linecap="round" stroke-linejoin="round"/>
<path d="M8 17L12 13L16 17" stroke="#009986" stroke-width="2" stroke-linecap="round" stroke-linejoin="round"/>
</svg>
